<?xml version="1.0" encoding="UTF-8" standalone="no"?>
<!-- Created with Inkscape (http://www.inkscape.org/) -->

<svg
   version="1.1"
   id="svg1"
   width="512"
   height="511.99994"
   viewBox="0 0 512 511.99995"
   sodipodi:docname="icon.svg"
   inkscape:version="1.4.3 (0d15f75042, 2025-12-25)"
   inkscape:export-filename="icon-512.png"
   inkscape:export-xdpi="96"
   inkscape:export-ydpi="96"
   xml:space="preserve"
   xmlns:inkscape="http://www.inkscape.org/namespaces/inkscape"
   xmlns:sodipodi="http://sodipodi.sourceforge.net/DTD/sodipodi-0.dtd"
   xmlns="http://www.w3.org/2000/svg"
   xmlns:svg="http://www.w3.org/2000/svg"><defs
     id="defs1" /><sodipodi:namedview
     id="namedview1"
     pagecolor="#ffffff"
     bordercolor="#000000"
     borderopacity="0.25"
     inkscape:showpageshadow="2"
     inkscape:pageopacity="0.0"
     inkscape:pagecheckerboard="0"
     inkscape:deskcolor="#d1d1d1"
     showguides="true"
     inkscape:zoom="1.5104167"
     inkscape:cx="202.59309"
     inkscape:cy="262.84137"
     inkscape:window-width="2560"
     inkscape:window-height="1371"
     inkscape:window-x="0"
     inkscape:window-y="0"
     inkscape:window-maximized="1"
     inkscape:current-layer="g1" /><g
     inkscape:groupmode="layer"
     inkscape:label="Image"
     id="g1"
     transform="translate(-867.75195,-227.75201)"><rect
       style="fill:#1e222a;fill-opacity:1;stroke-width:0.179095"
       id="rect1"
       width="512"
       height="511.99994"
       x="867.75195"
       y="227.75201" /><path
       id="path1"
       style="fill:#20a090;fill-opacity:1;stroke-width:0.322844"
       d="m 1041.9299,398.77025 c -22.6622,0 -24.4285,0.0401 -26.4444,0.59904 -6.0197,1.66925 -10.4256,6.49244 -11.6911,12.79902 -0.4537,2.26067 -0.5053,5.50165 -0.4124,25.98895 0.069,15.09891 0.2278,23.86457 0.4483,24.6976 0.4812,1.81761 1.4507,4.11954 1.9478,4.62388 0.2313,0.23464 0.4206,0.55132 0.4206,0.70432 0,0.64181 4.2726,4.54635 5.8623,5.35721 4.099,2.0908 2.848,2.00493 29.6973,2.03731 23.8134,0.0287 24.4753,0.0129 26.581,-0.63748 5.7448,-1.77435 10.3823,-6.84632 11.461,-12.53419 0.2054,-1.083 0.3297,-10.67342 0.3297,-25.45678 0,-20.53127 -0.068,-23.98289 -0.5081,-25.67999 -1.486,-5.73488 -5.4177,-9.97485 -10.8367,-11.68674 l -2.5708,-0.81215 z m 91.3288,0.005 c -20.6832,-0.004 -23.8046,0.0591 -25.6659,0.52084 -5.9426,1.47418 -10.2343,5.70444 -12.1321,11.95912 -0.3973,1.30966 -0.4736,5.48971 -0.4765,26.17561 0,13.53929 0.1101,24.6169 0.2489,24.6169 0.1388,0 0.2804,0.32686 0.3141,0.72638 0.033,0.39952 0.4253,1.65383 0.8701,2.78705 0.4449,1.13322 0.717,2.20888 0.6047,2.39045 -0.1166,0.18886 -0.045,0.2316 0.1678,0.10027 0.2176,-0.13454 0.5207,0.0787 0.7326,0.51517 0.5413,1.11429 4.0797,4.09291 6.0982,5.13335 3.7332,1.92421 3.0339,1.88224 30.1859,1.80654 23.7705,-0.0662 24.9226,-0.0969 26.3118,-0.69364 2.4242,-1.04124 4.9135,-2.73653 6.701,-4.56395 1.7549,-1.7942 3.953,-5.75641 3.953,-7.12528 0,-0.41456 0.1452,-0.75351 0.3228,-0.75351 0.2124,0 0.3228,-8.26905 0.3228,-24.1616 0,-23.0048 -0.03,-24.28126 -0.6381,-26.65549 -0.3508,-1.37147 -1.0992,-3.36061 -1.6641,-4.42019 -1.265,-2.37345 -4.4411,-5.4107 -6.8484,-6.54958 -3.8053,-1.80025 -3.8601,-1.80324 -29.4086,-1.80844 z m 98.0987,0.0347 c -2.0994,-0.004 -4.2187,1.05192 -5.4958,2.93395 -2.0923,3.08371 -1.5857,6.19286 1.5669,9.61724 3.4502,3.74771 10.581,14.73761 13.8211,21.30018 4.9867,10.09989 8.2313,19.77195 9.9659,29.70923 1.5503,8.88115 1.7671,11.47339 1.7827,21.30773 0.017,10.83808 -0.3416,14.52421 -2.3949,24.60425 -0.7036,3.45405 -2.6421,10.187 -3.2555,11.30776 -0.1689,0.30835 -0.3071,0.74772 -0.3071,0.97611 0,0.42242 -1.6177,4.77152 -2.4302,6.53445 -0.2456,0.53268 -0.7544,1.76757 -1.1312,2.74417 -2.1483,5.56738 -8.4977,16.36027 -13.6711,23.2391 -1.2559,1.66986 -1.7375,2.25727 -3.4479,4.20266 -2.1877,2.48853 -2.114,6.93638 0.152,9.20234 1.9511,1.95111 5.5205,2.6961 7.648,1.59595 1.1236,-0.58102 1.5947,-1.03525 3.3457,-3.22468 0.7042,-0.88055 1.3625,-1.67363 1.4629,-1.76241 0.4685,-0.41408 4.2535,-5.58146 5.6756,-7.74825 0.874,-1.33174 1.6701,-2.49398 1.7694,-2.58276 0.099,-0.0888 0.8655,-1.32367 1.7024,-2.74418 0.8369,-1.42052 1.6636,-2.80068 1.8369,-3.06701 0.3674,-0.56466 5.7463,-11.50351 6.5811,-13.38356 1.7905,-4.03252 3.8341,-9.849 5.3358,-15.18818 1.5601,-5.54734 1.5982,-5.69717 1.9748,-7.74826 0.1956,-1.06538 0.4824,-2.3729 0.6375,-2.9056 0.4023,-1.38136 1.1925,-6.69376 1.7624,-11.84878 0.6349,-5.74145 0.6354,-17.3585 0,-23.66345 -0.7851,-7.80005 -2.1394,-15.28593 -3.9126,-21.63122 -1.0399,-3.72111 -3.2645,-10.68953 -3.8136,-11.94524 -0.2329,-0.53269 -0.8202,-1.9855 -1.3052,-3.22845 -2.792,-7.1553 -8.5308,-17.62252 -13.6075,-24.82055 -4.0857,-5.79332 -7.8912,-10.24825 -9.4795,-11.09714 -0.8652,-0.46228 -1.8153,-0.68339 -2.7695,-0.6854 z m -20.8152,20.6015 c -1.4106,0.0326 -2.8233,0.59746 -4.1325,1.70375 -1.938,1.63731 -2.8352,4.95172 -1.9637,7.25518 0.1892,0.49987 1.3647,2.24497 2.6124,3.87793 1.2478,1.63291 2.1757,3.12031 2.0612,3.30536 -0.1167,0.18903 -0.023,0.26518 0.2146,0.17402 0.3786,-0.14535 0.7841,0.39219 2.9269,3.88233 0.218,0.35513 0.8168,1.29945 1.3305,2.09849 0.8861,1.37829 4.1108,7.81329 4.9416,9.86063 1.195,2.94496 2.357,6.15887 2.357,6.52055 0,0.22841 0.1368,0.66782 0.3041,0.97613 0.6039,1.11342 2.5615,9.6829 3.0411,13.31291 0.7387,5.59147 0.9843,13.75701 0.5436,18.07927 -0.4869,4.77388 -1.5257,10.99547 -2.1219,12.70632 -0.2563,0.73547 -0.4684,1.55592 -0.471,1.82294 -0.01,0.65596 -2.3502,7.94068 -3.0684,9.53654 -2.7519,6.11463 -7.1093,14.22303 -8.2331,15.32122 -0.091,0.0888 -0.3707,0.56094 -0.6223,1.04924 -0.2516,0.4883 -0.5789,0.88782 -0.7265,0.88782 -0.1475,0 -0.268,0.14354 -0.268,0.31907 0,0.17553 -0.2086,0.57505 -0.464,0.88782 -4.0795,4.99631 -4.7014,6.09404 -4.7014,8.29875 0,0.94616 0.1881,2.0828 0.4179,2.52599 0.6897,1.32932 2.2515,3.14207 2.7071,3.14207 0.2343,0 0.4262,0.12428 0.4262,0.27617 0,0.37551 1.8492,0.94204 3.2071,0.98239 0.6097,0.0182 1.7139,-0.25992 2.4534,-0.61793 1.372,-0.6642 2.0363,-1.30408 4.0167,-3.86908 0.6169,-0.79904 1.1989,-1.52545 1.2933,-1.61422 0.2815,-0.26487 2.6877,-3.60368 3.7227,-5.16552 0.5296,-0.79904 1.0357,-1.52531 1.1248,-1.61422 0.089,-0.0889 0.4384,-0.67003 0.7751,-1.29136 0.3366,-0.62136 1.0995,-1.97915 1.695,-3.01722 0.5954,-1.03805 1.0825,-2.01869 1.0825,-2.1792 0,-0.16052 0.1454,-0.29196 0.3229,-0.29196 0.1776,0 0.3228,-0.15444 0.3228,-0.34302 0,-0.18857 0.7094,-1.82296 1.5765,-3.63198 2.0869,-4.35357 2.372,-5.01637 3.7077,-8.61592 2.327,-6.27144 4.4208,-15.57983 5.2285,-23.24479 0.4314,-4.09383 0.5173,-13.21234 0.1538,-16.30364 -0.7883,-6.70545 -1.6619,-11.873 -2.6306,-15.55958 -0.5509,-2.09601 -1.1378,-4.38094 -1.3046,-5.07785 -0.1669,-0.69693 -1.1859,-3.52988 -2.2643,-6.29548 -4.1765,-10.708 -10.3342,-21.06775 -16.39,-27.57419 -1.5817,-1.69929 -3.3911,-2.53759 -5.2047,-2.49573 z m -20.5442,20.35809 c -2.3311,-0.0634 -4.5645,1.22626 -5.866,3.7827 -1.2742,2.50275 -0.7956,5.31897 1.3551,7.97843 4.3701,5.4037 8.2971,13.39991 9.7439,19.84043 2.3373,10.40321 1.7739,20.90081 -1.6047,29.90219 -1.6785,4.47201 -4.1352,9.50732 -4.7784,9.79317 -0.133,0.0592 -0.2421,0.3134 -0.2421,0.56498 0,0.25155 -0.122,0.45714 -0.2711,0.45714 -0.1491,0 -0.4315,0.35183 -0.6275,0.7819 -0.3444,0.75597 -0.6793,1.20504 -2.2686,3.03864 -2.127,2.45391 -2.6208,5.60555 -1.2738,8.12912 0.6808,1.27536 2.3866,2.90293 3.4725,3.31293 0.7997,0.3019 4.0979,0.2558 4.953,-0.0694 0.8354,-0.31769 2.2629,-1.68386 3.9642,-3.79343 1.5676,-1.94362 5.6108,-8.18359 5.6108,-8.65943 0,-0.2346 0.1235,-0.4749 0.2743,-0.53407 0.4397,-0.17261 3.1321,-5.9827 4.2335,-9.1355 1.0936,-3.13062 2.3067,-7.94063 2.975,-11.7958 0.6453,-3.72231 0.5642,-15.82817 -0.1331,-19.85494 -0.9954,-5.74872 -2.6189,-11.13031 -4.8048,-15.92277 -0.5119,-1.12217 -0.9307,-2.08906 -0.9307,-2.14895 0,-0.06 -1.0082,-1.8641 -2.2404,-4.00905 -2.5356,-4.41406 -3.7277,-6.11573 -6.3149,-9.01507 -1.5404,-1.72611 -3.4128,-2.59399 -5.2262,-2.64329 z m -172.6662,51.97985 -2.6162,0.92502 c -2.8256,0.99923 -5.5183,2.79056 -7.2684,4.83511 -1.3682,1.59846 -3.1013,4.98132 -3.3741,6.58614 -0.113,0.66432 -0.3344,1.12742 -0.4925,1.02969 -0.1671,-0.10324 -0.2875,10.23234 -0.2875,24.68183 0,16.22445 0.1121,24.92804 0.3228,25.05826 0.1776,0.10974 0.3229,0.69932 0.3229,1.31031 0,0.61099 0.1452,1.11103 0.3228,1.11103 0.1776,0 0.3229,0.34364 0.3229,0.76361 0,0.41998 0.2905,1.13307 0.6457,1.58456 0.3551,0.45148 0.6456,0.98062 0.6456,1.17601 0,0.19542 1.0804,1.42875 2.4012,2.74102 3.4469,3.4246 6.3595,4.68516 11.804,5.10813 2.3376,0.18162 43.7973,-0.007 45.7601,-0.20745 3.7539,-0.38456 6.9597,-2.08759 10.0069,-5.31558 0.93,-0.98513 2.0486,-2.5227 2.4857,-3.41698 1.8107,-3.7039 1.7963,-3.46671 1.7963,-29.28112 0,-15.934 -0.1166,-24.37287 -0.3523,-25.51793 -1.1808,-5.73482 -5.7553,-10.74965 -11.3961,-12.49193 -2.1565,-0.66608 -2.7026,-0.67973 -26.6259,-0.67973 z m 116.7619,0.0712 c -23.7895,-0.0872 -24.7279,-0.0685 -26.9216,0.55235 -2.8629,0.81017 -5.3301,2.28381 -7.5041,4.48202 -1.5094,1.52595 -3.3957,4.59707 -3.3957,5.52805 0,0.18875 -0.1294,0.34303 -0.2875,0.34303 -0.1582,0 -0.3986,0.5448 -0.534,1.21068 -0.3719,1.82651 -0.5418,50.48352 -0.1791,51.25153 0.1676,0.35512 0.397,1.08154 0.5101,1.61423 0.2647,1.24636 1.8678,4.68123 2.1848,4.68123 0.1335,0 0.243,0.1816 0.2434,0.40355 0,0.53318 3.5272,3.70662 5.1309,4.61757 2.1202,1.20433 4.4846,1.82715 7.7413,2.03985 1.7092,0.11165 12.9144,0.16951 24.9001,0.12862 21.0559,-0.0718 21.8671,-0.0969 24.0121,-0.74785 1.221,-0.37053 2.7628,-1.01686 3.4263,-1.43575 2.2963,-1.44954 5.0628,-4.30705 6.0149,-6.21287 0.5113,-1.02296 1.0218,-1.93277 1.1344,-2.02156 0.1127,-0.0888 0.4396,-1.08095 0.7265,-2.20505 0.4576,-1.79306 0.5214,-5.03176 0.5214,-26.39254 0,-13.63856 -0.124,-24.34888 -0.2817,-24.34888 -0.155,0 -0.3733,-0.57473 -0.4857,-1.2775 -0.2798,-1.7505 -2.333,-5.47375 -4.0014,-7.25705 -0.7583,-0.81051 -1.4706,-1.47363 -1.5834,-1.47363 -0.1128,0 -0.6549,-0.34054 -1.2042,-0.75665 -0.5496,-0.41614 -2.0159,-1.17887 -3.2588,-1.69493 l -2.26,-0.93829 z"
       sodipodi:nodetypes="ccsssssssssssssscsssscssssssssssssssssscssssssssssssssssssssssssscsssssccsssssssssssssssssssssssssssssssssssssssssssssssssssssssssssssssssssssccsssssssssssscssssssccsssssssscssssssssssssssscc" /></g></svg>
